<?xml version="1.0" encoding="UTF-8" standalone="no"?>
<svg
   viewBox="0 0 24 24"
   version="1.1"
   id="svg1"
   sodipodi:docname="rule_nonzero.svg"
   inkscape:version="1.4 (e7c3feb100, 2024-10-09)"
   xmlns:inkscape="http://www.inkscape.org/namespaces/inkscape"
   xmlns:sodipodi="http://sodipodi.sourceforge.net/DTD/sodipodi-0.dtd"
   xmlns="http://www.w3.org/2000/svg"
   xmlns:svg="http://www.w3.org/2000/svg">
  <defs
     id="defs1" />
  <sodipodi:namedview
     id="namedview1"
     pagecolor="#ffffff"
     bordercolor="#000000"
     borderopacity="0.25"
     inkscape:showpageshadow="2"
     inkscape:pageopacity="0.0"
     inkscape:pagecheckerboard="0"
     inkscape:deskcolor="#d1d1d1"
     inkscape:zoom="33.333333"
     inkscape:cx="12"
     inkscape:cy="12"
     inkscape:window-width="1290"
     inkscape:window-height="1011"
     inkscape:window-x="315"
     inkscape:window-y="32"
     inkscape:window-maximized="0"
     inkscape:current-layer="svg1" />
  <path
     d="M 13.666667,3 H 4.3333333 C 3.5933333,3 3,3.5933333 3,4.3333333 V 13.666667 A 1.3333333,1.3333333 0 0 0 4.3333333,15 H 13.666667 A 1.3333333,1.3333333 0 0 0 15,13.666667 V 4.3333333 C 15,3.5933333 14.4,3 13.666667,3 Z"
     id="path2"
     style="stroke-width:0.666667" />
  <path
     d="M 19.666667,9 H 10.333333 C 9.5933333,9 9,9.5933333 9,10.333333 v 9.333334 A 1.3333333,1.3333333 0 0 0 10.333333,21 h 9.333334 A 1.3333333,1.3333333 0 0 0 21,19.666667 V 10.333333 C 21,9.5933333 20.4,9 19.666667,9 Z"
     id="path3"
     style="stroke-width:0.666667" />
</svg>
